<mxfile host="app.diagrams.net" agent="Mozilla/5.0 (Windows NT 10.0; Win64; x64) AppleWebKit/537.36 (KHTML, like Gecko) Chrome/131.0.0.0 Safari/537.36 Edg/131.0.0.0" version="25.0.0">
  <diagram name="第 1 页" id="0_IJe6jKs7uX-kbyf0No">
    <mxGraphModel dx="1213" dy="661" grid="1" gridSize="10" guides="1" tooltips="1" connect="1" arrows="1" fold="1" page="1" pageScale="1" pageWidth="827" pageHeight="1169" math="0" shadow="0">
      <root>
        <mxCell id="0" />
        <mxCell id="1" parent="0" />
        <mxCell id="vkHrLo6mFUPlAhKkv5h0-8" value="" style="edgeStyle=orthogonalEdgeStyle;rounded=0;orthogonalLoop=1;jettySize=auto;html=1;fillColor=#dae8fc;strokeColor=#6c8ebf;" edge="1" parent="1" source="vkHrLo6mFUPlAhKkv5h0-1" target="vkHrLo6mFUPlAhKkv5h0-2">
          <mxGeometry relative="1" as="geometry" />
        </mxCell>
        <mxCell id="vkHrLo6mFUPlAhKkv5h0-1" value="开始" style="rounded=0;whiteSpace=wrap;html=1;fillColor=#dae8fc;strokeColor=#6c8ebf;" vertex="1" parent="1">
          <mxGeometry x="20" y="260" width="70" height="40" as="geometry" />
        </mxCell>
        <mxCell id="vkHrLo6mFUPlAhKkv5h0-9" value="" style="edgeStyle=orthogonalEdgeStyle;rounded=0;orthogonalLoop=1;jettySize=auto;html=1;fillColor=#dae8fc;strokeColor=#6c8ebf;" edge="1" parent="1" source="vkHrLo6mFUPlAhKkv5h0-2" target="vkHrLo6mFUPlAhKkv5h0-3">
          <mxGeometry relative="1" as="geometry" />
        </mxCell>
        <mxCell id="vkHrLo6mFUPlAhKkv5h0-2" value="新用户注册" style="rounded=0;whiteSpace=wrap;html=1;fillColor=#dae8fc;strokeColor=#6c8ebf;" vertex="1" parent="1">
          <mxGeometry x="140" y="260" width="70" height="40" as="geometry" />
        </mxCell>
        <mxCell id="vkHrLo6mFUPlAhKkv5h0-10" value="" style="edgeStyle=orthogonalEdgeStyle;rounded=0;orthogonalLoop=1;jettySize=auto;html=1;fillColor=#dae8fc;strokeColor=#6c8ebf;" edge="1" parent="1" source="vkHrLo6mFUPlAhKkv5h0-3">
          <mxGeometry relative="1" as="geometry">
            <mxPoint x="410" y="280" as="targetPoint" />
          </mxGeometry>
        </mxCell>
        <mxCell id="vkHrLo6mFUPlAhKkv5h0-3" value="输入用户名和密码" style="rounded=0;whiteSpace=wrap;html=1;fillColor=#dae8fc;strokeColor=#6c8ebf;" vertex="1" parent="1">
          <mxGeometry x="250" y="260" width="106" height="40" as="geometry" />
        </mxCell>
        <mxCell id="vkHrLo6mFUPlAhKkv5h0-16" value="" style="edgeStyle=orthogonalEdgeStyle;rounded=0;orthogonalLoop=1;jettySize=auto;html=1;fillColor=#dae8fc;strokeColor=#6c8ebf;" edge="1" parent="1">
          <mxGeometry relative="1" as="geometry">
            <mxPoint x="530" y="280" as="sourcePoint" />
            <mxPoint x="580" y="280" as="targetPoint" />
          </mxGeometry>
        </mxCell>
        <mxCell id="vkHrLo6mFUPlAhKkv5h0-27" value="T" style="edgeLabel;html=1;align=center;verticalAlign=middle;resizable=0;points=[];" vertex="1" connectable="0" parent="vkHrLo6mFUPlAhKkv5h0-16">
          <mxGeometry x="0.1867" y="3" relative="1" as="geometry">
            <mxPoint as="offset" />
          </mxGeometry>
        </mxCell>
        <mxCell id="vkHrLo6mFUPlAhKkv5h0-12" value="提示错误" style="rounded=0;whiteSpace=wrap;html=1;fillColor=#dae8fc;strokeColor=#6c8ebf;" vertex="1" parent="1">
          <mxGeometry x="320" y="190" width="90" height="40" as="geometry" />
        </mxCell>
        <mxCell id="vkHrLo6mFUPlAhKkv5h0-13" value="" style="endArrow=classic;html=1;rounded=0;entryX=1;entryY=0.5;entryDx=0;entryDy=0;fillColor=#dae8fc;strokeColor=#6c8ebf;exitX=0.5;exitY=0;exitDx=0;exitDy=0;" edge="1" parent="1" source="vkHrLo6mFUPlAhKkv5h0-25" target="vkHrLo6mFUPlAhKkv5h0-12">
          <mxGeometry width="50" height="50" relative="1" as="geometry">
            <mxPoint x="450" y="260" as="sourcePoint" />
            <mxPoint x="500" y="210" as="targetPoint" />
            <Array as="points">
              <mxPoint x="475" y="220" />
              <mxPoint x="475" y="210" />
              <mxPoint x="450" y="210" />
            </Array>
          </mxGeometry>
        </mxCell>
        <mxCell id="vkHrLo6mFUPlAhKkv5h0-29" value="N" style="edgeLabel;html=1;align=center;verticalAlign=middle;resizable=0;points=[];" vertex="1" connectable="0" parent="vkHrLo6mFUPlAhKkv5h0-13">
          <mxGeometry x="-0.6222" y="1" relative="1" as="geometry">
            <mxPoint as="offset" />
          </mxGeometry>
        </mxCell>
        <mxCell id="vkHrLo6mFUPlAhKkv5h0-14" value="" style="endArrow=classic;html=1;rounded=0;entryX=0.5;entryY=0;entryDx=0;entryDy=0;fillColor=#dae8fc;strokeColor=#6c8ebf;" edge="1" parent="1" target="vkHrLo6mFUPlAhKkv5h0-3">
          <mxGeometry width="50" height="50" relative="1" as="geometry">
            <mxPoint x="320" y="210" as="sourcePoint" />
            <mxPoint x="370" y="160" as="targetPoint" />
            <Array as="points">
              <mxPoint x="303" y="210" />
            </Array>
          </mxGeometry>
        </mxCell>
        <mxCell id="vkHrLo6mFUPlAhKkv5h0-22" value="" style="edgeStyle=orthogonalEdgeStyle;rounded=0;orthogonalLoop=1;jettySize=auto;html=1;fillColor=#dae8fc;strokeColor=#6c8ebf;" edge="1" parent="1" target="vkHrLo6mFUPlAhKkv5h0-18">
          <mxGeometry relative="1" as="geometry">
            <mxPoint x="665" y="300" as="sourcePoint" />
          </mxGeometry>
        </mxCell>
        <mxCell id="vkHrLo6mFUPlAhKkv5h0-28" value="T" style="edgeLabel;html=1;align=center;verticalAlign=middle;resizable=0;points=[];" vertex="1" connectable="0" parent="vkHrLo6mFUPlAhKkv5h0-22">
          <mxGeometry x="-0.0616" y="2" relative="1" as="geometry">
            <mxPoint as="offset" />
          </mxGeometry>
        </mxCell>
        <mxCell id="vkHrLo6mFUPlAhKkv5h0-17" value="" style="endArrow=classic;html=1;rounded=0;entryX=1;entryY=0.5;entryDx=0;entryDy=0;exitX=0.5;exitY=0;exitDx=0;exitDy=0;fillColor=#dae8fc;strokeColor=#6c8ebf;" edge="1" parent="1" target="vkHrLo6mFUPlAhKkv5h0-12">
          <mxGeometry width="50" height="50" relative="1" as="geometry">
            <mxPoint x="665" y="260" as="sourcePoint" />
            <mxPoint x="450" y="210" as="targetPoint" />
            <Array as="points">
              <mxPoint x="665" y="210" />
            </Array>
          </mxGeometry>
        </mxCell>
        <mxCell id="vkHrLo6mFUPlAhKkv5h0-30" value="N" style="edgeLabel;html=1;align=center;verticalAlign=middle;resizable=0;points=[];" vertex="1" connectable="0" parent="vkHrLo6mFUPlAhKkv5h0-17">
          <mxGeometry x="-0.7574" y="-1" relative="1" as="geometry">
            <mxPoint as="offset" />
          </mxGeometry>
        </mxCell>
        <mxCell id="vkHrLo6mFUPlAhKkv5h0-21" value="" style="edgeStyle=orthogonalEdgeStyle;rounded=0;orthogonalLoop=1;jettySize=auto;html=1;fillColor=#dae8fc;strokeColor=#6c8ebf;" edge="1" parent="1" source="vkHrLo6mFUPlAhKkv5h0-18" target="vkHrLo6mFUPlAhKkv5h0-19">
          <mxGeometry relative="1" as="geometry" />
        </mxCell>
        <mxCell id="vkHrLo6mFUPlAhKkv5h0-18" value="注册成功" style="rounded=0;whiteSpace=wrap;html=1;fillColor=#dae8fc;strokeColor=#6c8ebf;" vertex="1" parent="1">
          <mxGeometry x="605" y="355" width="120" height="40" as="geometry" />
        </mxCell>
        <mxCell id="vkHrLo6mFUPlAhKkv5h0-24" value="" style="edgeStyle=orthogonalEdgeStyle;rounded=0;orthogonalLoop=1;jettySize=auto;html=1;fillColor=#dae8fc;strokeColor=#6c8ebf;" edge="1" parent="1" source="vkHrLo6mFUPlAhKkv5h0-19" target="vkHrLo6mFUPlAhKkv5h0-23">
          <mxGeometry relative="1" as="geometry" />
        </mxCell>
        <mxCell id="vkHrLo6mFUPlAhKkv5h0-19" value="自动跳转到登录界面" style="rounded=0;whiteSpace=wrap;html=1;fillColor=#dae8fc;strokeColor=#6c8ebf;" vertex="1" parent="1">
          <mxGeometry x="420" y="357.5" width="110" height="35" as="geometry" />
        </mxCell>
        <mxCell id="vkHrLo6mFUPlAhKkv5h0-23" value="结束" style="rounded=0;whiteSpace=wrap;html=1;fillColor=#dae8fc;strokeColor=#6c8ebf;" vertex="1" parent="1">
          <mxGeometry x="250" y="353.75" width="102" height="42.5" as="geometry" />
        </mxCell>
        <mxCell id="vkHrLo6mFUPlAhKkv5h0-25" value="&lt;font&gt;判断用户名是否为空或者已经被注册&lt;/font&gt;" style="rhombus;whiteSpace=wrap;html=1;fillColor=#dae8fc;strokeColor=#6c8ebf;" vertex="1" parent="1">
          <mxGeometry x="410" y="235" width="130" height="90" as="geometry" />
        </mxCell>
        <mxCell id="vkHrLo6mFUPlAhKkv5h0-26" value="判断密码长度是否大于8&lt;div&gt;并且两次输入的密码是否相同&lt;/div&gt;" style="rhombus;whiteSpace=wrap;html=1;fillColor=#dae8fc;strokeColor=#6c8ebf;" vertex="1" parent="1">
          <mxGeometry x="580" y="245" width="170" height="70" as="geometry" />
        </mxCell>
      </root>
    </mxGraphModel>
  </diagram>
</mxfile>
